<mxfile host="app.diagrams.net" modified="2024-01-25T16:08:13.808Z" agent="Mozilla/5.0 (Windows NT 10.0; Win64; x64) AppleWebKit/537.36 (KHTML, like Gecko) Chrome/120.0.0.0 Safari/537.36 Edg/120.0.0.0" version="23.0.2" etag="-ixU4iKyA7RTtQEiEhQX" type="github">
  <diagram name="Page-1" id="2iSQVLMwaRbmA-QYTZz2">
    <mxGraphModel>
      <root>
        <mxCell id="0" />
        <mxCell id="1" parent="0" />
      </root>
    </mxGraphModel>
  </diagram>
</mxfile>
